# Blender v2.79 (sub 0) OBJ File: 'mushroom 3.24.53 PM.blend'
# www.blender.org
mtllib mushroom 3.24.53 PM.mtl
o mushroom_Cylinder
v -0.561473 0.000000 0.772801
v 0.000000 4.950339 0.000000
v 0.000000 1.950340 -1.092510
v 0.000000 4.950339 -0.933503
v 0.642161 1.950340 -0.883859
v 0.548699 4.950339 -0.755220
v 1.039039 1.950340 -0.337604
v 0.887814 4.950339 -0.288468
v 1.039039 1.950340 0.337604
v 0.887814 4.950339 0.288468
v 0.642161 1.950340 0.883859
v 0.548699 4.950339 0.755220
v -0.000000 1.950340 1.092510
v -0.000000 4.950339 0.933503
v -0.642162 1.950340 0.883859
v -0.548699 4.950339 0.755220
v -1.039039 1.950340 0.337604
v -0.887814 4.950339 0.288468
v -1.039039 1.950340 -0.337604
v -0.887814 4.950339 -0.288468
v -0.642161 1.950340 -0.883860
v -0.548699 4.950339 -0.755220
v 0.000000 4.370545 -1.500000
v 0.881678 4.370545 -1.213526
v 1.426585 4.370545 -0.463525
v 1.426585 4.370545 0.463526
v 0.881678 4.370545 1.213526
v -0.000000 4.370545 1.500000
v -0.881678 4.370545 1.213525
v -1.426585 4.370545 0.463526
v -1.426585 4.370545 -0.463526
v -0.881677 4.370545 -1.213526
v 1.250407 2.166114 1.721037
v 2.023201 2.166114 0.657378
v 2.023201 2.166114 -0.657378
v 1.250407 2.166114 -1.721037
v -2.023201 2.166114 -0.657378
v -2.023201 2.166114 0.657378
v -1.250407 2.166114 1.721037
v -0.000000 2.166114 2.127319
v 0.000000 2.166114 -2.127319
v -1.250406 2.166114 -1.721038
v 1.148670 3.187906 1.581009
v 1.858588 3.187906 -0.603892
v 1.148670 3.187906 -1.581009
v 1.858588 3.187906 0.603892
v -1.858588 3.187906 -0.603892
v -1.148670 3.187906 1.581009
v -0.000000 3.187906 1.954235
v -1.858588 3.187906 0.603892
v 0.000000 3.187906 -1.954235
v -1.148670 3.187906 -1.581010
v -0.908482 0.000000 -0.295184
v -0.561472 0.000000 -0.772801
v 0.000000 0.000000 -0.000000
v 0.000000 0.000000 -0.955234
v -0.642162 0.212011 0.883859
v -0.000000 0.212011 1.092510
v 0.642161 0.212011 0.883859
v 1.039039 0.212011 0.337604
v 0.561472 0.000000 -0.772801
v 0.908482 0.000000 -0.295184
v 0.908482 0.000000 0.295184
v 0.561472 0.000000 0.772801
v -0.908482 0.000000 0.295184
v 1.039039 0.212011 -0.337604
v 0.642161 0.212011 -0.883859
v 0.000000 0.212011 -1.092510
v -0.000000 0.000000 0.955234
v -0.642161 0.212011 -0.883860
v -1.039039 0.212011 -0.337604
v -1.039039 0.212011 0.337604
vt 0.385191 0.903783
vt 0.344547 0.901100
vt 0.349953 0.610334
vt 0.384363 0.613018
vt 0.761200 0.268000
vt 0.817101 0.344942
vt 0.761200 0.363105
vt 0.761200 0.420820
vt 0.851025 0.391634
vt 0.157060 0.878309
vt 0.124982 0.889698
vt 0.116349 0.598933
vt 0.149755 0.587544
vt 0.851650 0.297389
vt 0.906540 0.315224
vt 0.307463 0.892402
vt 0.274559 0.881014
vt 0.282437 0.590248
vt 0.315941 0.601637
vt 0.851650 0.238611
vt 0.906540 0.220776
vt 0.088995 0.899428
vt 0.082468 0.608663
vt 0.817101 0.191058
vt 0.851025 0.144366
vt 0.244403 0.871283
vt 0.249226 0.580518
vt 0.761200 0.172895
vt 0.761200 0.115180
vt 0.048950 0.903783
vt 0.048122 0.613018
vt 0.705299 0.191058
vt 0.671375 0.144366
vt 0.215527 0.866928
vt 0.216080 0.576163
vt 0.670750 0.238611
vt 0.615860 0.220776
vt 0.186781 0.869612
vt 0.182935 0.578846
vt 0.670750 0.297389
vt 0.615860 0.315224
vt 0.705299 0.344942
vt 0.671375 0.391634
vt 0.761200 0.467097
vt 0.878226 0.429073
vt 0.950553 0.329524
vt 0.950553 0.206476
vt 0.878226 0.106927
vt 0.761200 0.068903
vt 0.644173 0.106927
vt 0.571847 0.206476
vt 0.571847 0.329524
vt 0.644174 0.429073
vt 0.246585 0.894046
vt 0.215773 0.885566
vt 0.384755 0.957330
vt 0.347347 0.952104
vt 0.120773 0.929903
vt 0.085648 0.948850
vt 0.311650 0.935169
vt 0.153667 0.907727
vt 0.278258 0.912993
vt 0.185051 0.890792
vt 0.048514 0.957330
vt 0.761200 0.484731
vt 0.888591 0.443339
vt 0.967324 0.334974
vt 0.967324 0.201026
vt 0.888591 0.092661
vt 0.761200 0.051269
vt 0.633809 0.092661
vt 0.555076 0.201026
vt 0.555076 0.334974
vt 0.633809 0.443339
vt 0.380139 0.391007
vt 0.316915 0.565289
vt 0.283449 0.555331
vt 0.043897 0.391007
vt 0.081777 0.571432
vt 0.048039 0.575240
vt 0.216160 0.543016
vt 0.182393 0.545362
vt 0.148795 0.552967
vt 0.115328 0.562924
vt 0.350514 0.572893
vt 0.384280 0.575240
vt 0.249897 0.546823
vn 0.3090 0.0000 -0.9511
vn 0.0000 1.0000 0.0000
vn 0.2264 0.6807 -0.6967
vn -1.0000 0.0000 0.0000
vn 0.5926 0.6807 -0.4306
vn 1.0000 0.0000 0.0000
vn 0.7325 0.6807 0.0000
vn -0.8090 0.0000 -0.5878
vn 0.5926 0.6807 0.4306
vn 0.8090 0.0000 0.5878
vn 0.2264 0.6807 0.6967
vn -0.3090 0.0000 -0.9511
vn -0.2264 0.6807 0.6967
vn 0.3090 0.0000 0.9511
vn -0.5926 0.6807 0.4306
vn -0.3090 0.0000 0.9511
vn -0.7325 0.6807 0.0000
vn -0.8090 0.0000 0.5878
vn -0.5926 0.6807 -0.4306
vn 0.8090 0.0000 -0.5878
vn -0.2264 0.6807 -0.6967
vn 0.2903 0.3431 -0.8933
vn 0.7599 0.3431 -0.5521
vn 0.9393 0.3431 0.0000
vn 0.7599 0.3431 0.5521
vn 0.2903 0.3431 0.8933
vn -0.2903 0.3431 0.8933
vn -0.7599 0.3431 0.5521
vn -0.9393 0.3431 0.0000
vn -0.7599 0.3431 -0.5521
vn -0.2903 0.3431 -0.8933
vn 0.0662 -0.9768 0.2037
vn 0.0662 -0.9768 -0.2037
vn -0.1733 -0.9768 -0.1259
vn 0.1733 -0.9768 -0.1259
vn -0.2142 -0.9768 0.0000
vn 0.2142 -0.9768 0.0000
vn 0.1733 -0.9768 0.1259
vn -0.1733 -0.9768 0.1259
vn -0.0662 -0.9768 -0.2037
vn -0.0662 -0.9768 0.2037
vn 0.3051 0.1591 -0.9389
vn 0.7987 0.1591 -0.5803
vn 0.9873 0.1591 0.0000
vn 0.7987 0.1591 0.5803
vn 0.3051 0.1591 0.9389
vn -0.3051 0.1591 0.9389
vn -0.7987 0.1591 0.5803
vn -0.9873 0.1591 0.0000
vn -0.7987 0.1591 -0.5803
vn -0.3051 0.1591 -0.9389
vn 0.0000 -1.0000 0.0000
vn -0.2631 -0.5244 0.8098
vn 0.8515 -0.5244 0.0000
vn 0.2631 -0.5244 -0.8098
vn 0.6889 -0.5244 0.5005
vn 0.6889 -0.5244 -0.5005
vn -0.6889 -0.5244 -0.5005
vn -0.6889 -0.5244 0.5005
vn -0.2631 -0.5244 -0.8098
vn 0.2631 -0.5244 0.8098
vn -0.8515 -0.5244 0.0000
usemtl mushroom
s off
f 3/1/1 5/2/1 67/3/1 68/4/1
f 2/5/2 6/6/2 4/7/2
f 23/8/3 4/7/3 6/6/3 24/9/3
f 17/10/4 19/11/4 71/12/4 72/13/4
f 2/5/2 8/14/2 6/6/2
f 24/9/5 6/6/5 8/14/5 25/15/5
f 7/16/6 9/17/6 60/18/6 66/19/6
f 2/5/2 10/20/2 8/14/2
f 25/15/7 8/14/7 10/20/7 26/21/7
f 19/11/8 21/22/8 70/23/8 71/12/8
f 2/5/2 12/24/2 10/20/2
f 26/21/9 10/20/9 12/24/9 27/25/9
f 9/17/10 11/26/10 59/27/10 60/18/10
f 2/5/2 14/28/2 12/24/2
f 27/25/11 12/24/11 14/28/11 28/29/11
f 21/22/12 3/30/12 68/31/12 70/23/12
f 2/5/2 16/32/2 14/28/2
f 28/29/13 14/28/13 16/32/13 29/33/13
f 11/26/14 13/34/14 58/35/14 59/27/14
f 2/5/2 18/36/2 16/32/2
f 29/33/15 16/32/15 18/36/15 30/37/15
f 13/34/16 15/38/16 57/39/16 58/35/16
f 2/5/2 20/40/2 18/36/2
f 30/37/17 18/36/17 20/40/17 31/41/17
f 15/38/18 17/10/18 72/13/18 57/39/18
f 2/5/2 22/42/2 20/40/2
f 31/41/19 20/40/19 22/42/19 32/43/19
f 5/2/20 7/16/20 66/19/20 67/3/20
f 2/5/2 4/7/2 22/42/2
f 32/43/21 22/42/21 4/7/21 23/8/21
f 51/44/22 23/8/22 24/9/22 45/45/22
f 45/45/23 24/9/23 25/15/23 44/46/23
f 44/46/24 25/15/24 26/21/24 46/47/24
f 46/47/25 26/21/25 27/25/25 43/48/25
f 43/48/26 27/25/26 28/29/26 49/49/26
f 49/49/27 28/29/27 29/33/27 48/50/27
f 48/50/28 29/33/28 30/37/28 50/51/28
f 50/51/29 30/37/29 31/41/29 47/52/29
f 47/52/30 31/41/30 32/43/30 52/53/30
f 52/53/31 32/43/31 23/8/31 51/44/31
f 11/26/32 33/54/32 40/55/32 13/34/32
f 3/1/33 41/56/33 36/57/33 5/2/33
f 19/11/34 37/58/34 42/59/34 21/22/34
f 5/2/35 36/57/35 35/60/35 7/16/35
f 17/10/36 38/61/36 37/58/36 19/11/36
f 7/16/37 35/60/37 34/62/37 9/17/37
f 9/17/38 34/62/38 33/54/38 11/26/38
f 15/38/39 39/63/39 38/61/39 17/10/39
f 21/22/40 42/59/40 41/64/40 3/30/40
f 13/34/41 40/55/41 39/63/41 15/38/41
f 41/65/42 51/44/42 45/45/42 36/66/42
f 36/66/43 45/45/43 44/46/43 35/67/43
f 35/67/44 44/46/44 46/47/44 34/68/44
f 34/68/45 46/47/45 43/48/45 33/69/45
f 33/69/46 43/48/46 49/49/46 40/70/46
f 40/70/47 49/49/47 48/50/47 39/71/47
f 39/71/48 48/50/48 50/51/48 38/72/48
f 38/72/49 50/51/49 47/52/49 37/73/49
f 37/73/50 47/52/50 52/53/50 42/74/50
f 42/74/51 52/53/51 51/44/51 41/65/51
f 55/75/52 62/76/52 63/77/52
f 55/78/52 54/79/52 56/80/52
f 55/75/52 69/81/52 1/82/52
f 55/78/52 1/82/52 65/83/52
f 55/78/52 65/83/52 53/84/52
f 58/35/53 57/39/53 1/82/53 69/81/53
f 55/78/52 53/84/52 54/79/52
f 66/19/54 60/18/54 63/77/54 62/76/54
f 68/4/55 67/3/55 61/85/55 56/86/55
f 60/18/56 59/27/56 64/87/56 63/77/56
f 55/75/52 61/85/52 62/76/52
f 67/3/57 66/19/57 62/76/57 61/85/57
f 71/12/58 70/23/58 54/79/58 53/84/58
f 57/39/59 72/13/59 65/83/59 1/82/59
f 70/23/60 68/31/60 56/80/60 54/79/60
f 59/27/61 58/35/61 69/81/61 64/87/61
f 72/13/62 71/12/62 53/84/62 65/83/62
f 55/75/52 56/86/52 61/85/52
f 55/75/52 64/87/52 69/81/52
f 55/75/52 63/77/52 64/87/52
